<svg id="Layer_1" data-name="Layer 1" xmlns="http://www.w3.org/2000/svg" viewBox="0 0 668.69 313.52"><defs><style>.cls-1,.cls-2,.cls-3,.cls-4,.cls-5{fill:#3c8ec7;}.cls-1{opacity:0.57;}.cls-2{opacity:0.27;}.cls-3{opacity:0.55;}.cls-4{opacity:0.54;}.cls-6{fill:#0262a1;}</style></defs><title>Logo Master Horsham</title><polygon class="cls-1" points="69.91 69.02 67.29 0.05 72.23 0 73.86 68.97 69.91 69.02"/><polygon class="cls-2" points="51.39 168.33 163.44 185.98 168.61 295.75 56.65 284.84 51.39 168.33"/><polyline class="cls-3" points="56.36 173.92 3.41 211.85 0 313.52 70.58 284.61 56.36 173.92"/><polygon class="cls-3" points="18.64 207.25 72.83 58.25 63.47 183.12 18.64 207.25"/><polygon class="cls-2" points="70.81 54.9 151.4 188 64.04 177.66 70.81 54.9"/><polygon class="cls-4" points="74 194.54 122.14 226.09 115.04 234.75 74 194.54"/><polygon class="cls-4" points="114.55 223.46 124.78 229.22 102.25 262.01 114.55 223.46"/><path class="cls-5" d="M264.44,89.9v54.93a6.31,6.31,0,0,1-3.16.75c-1.75,0-3.41-.42-3.41-3.08V118.78H227.23v26a6.08,6.08,0,0,1-3.58.83c-1.42,0-2.91-.42-2.91-3.08V88a7.75,7.75,0,0,1,3.41-.67c1.75,0,3.08.67,3.08,2.58v22.89h30.63V88a8.76,8.76,0,0,1,3.41-.67C263,87.32,264.44,88,264.44,89.9Z" transform="translate(-17.33 -8.49)"/><path class="cls-5" d="M292.13,104.63c10.82,0,17.89,6.66,17.89,21,0,15.15-7.58,20.81-18.31,20.81s-18.14-5.91-18.14-20.81C273.57,111.29,281.4,104.63,292.13,104.63Zm-.42,36c7.07,0,11.73-3.83,11.73-14.9,0-10.32-4.33-15.15-11.32-15.15s-12,4.91-12,15.15C280.15,136.76,284.89,140.58,291.72,140.58Z" transform="translate(-17.33 -8.49)"/><path class="cls-5" d="M328.19,112.37v.42c3.41-4.41,8.32-8.16,13-8.16,4.49,0,7.16,2.25,7.16,7,0,3.41-1.5,4.58-3.66,4.58a3.59,3.59,0,0,1-2.41-1c0-2.16-.92-3.66-3.66-3.66-3.58,0-7.49,2.91-10.4,7.24v26a6,6,0,0,1-3.5.75c-1.58,0-3-.42-3-3V114c0-1.75-.75-2.58-2.08-2.58h-3.08a7.3,7.3,0,0,1-.5-2.75c0-1.75,2.16-3.16,5.74-3.16C325.77,105.46,328.19,107.13,328.19,112.37Z" transform="translate(-17.33 -8.49)"/><path class="cls-5" d="M382.43,111a3.66,3.66,0,0,1-1.5,3.33c-1.83-1.66-6.66-3.24-12.4-3.24s-8,2.41-8,5.24c0,3.5,2.91,5,9.57,6.24,9.74,1.67,13.73,5.16,13.73,12.23,0,7.32-4.91,11.65-14.81,11.65-9,0-15.15-3.41-15.15-6.41a4.12,4.12,0,0,1,1.33-3.49c2.41,1.83,8.49,4.16,13.4,4.16,7,0,9.4-2.66,9.4-5.83,0-3.75-2.58-5.41-9.4-6.66-10.07-1.75-13.82-4.83-13.82-12.23,0-6.41,4.66-11.32,13.9-11.32S382.43,108.21,382.43,111Z" transform="translate(-17.33 -8.49)"/><path class="cls-5" d="M398.5,89.9v22.72c3.66-4.83,8.82-8,14.48-8,7.16,0,11.23,4.33,11.23,13.23v21c0,1.5.66,2.08,1.75,2.08h2.5a3.3,3.3,0,0,1,.42,1.83c0,1.67-2,2.83-5.82,2.83-3.16,0-5.16-1.67-5.16-6.16V119.36c0-5.74-2.25-8.32-6.83-8.32s-9.57,3.08-12.57,7.82v26a6.08,6.08,0,0,1-3.25.67c-1.41,0-3-.42-3-3.08V88.07a6.54,6.54,0,0,1,3.33-.75C397.25,87.32,398.5,88.07,398.5,89.9Z" transform="translate(-17.33 -8.49)"/><path class="cls-5" d="M437.28,110.71c0-4,7.91-6.08,13.73-6.08,7.49,0,14,3.08,14,12.07v21.39c0,2.08.75,2.91,2.08,2.91h2.33a3.87,3.87,0,0,1,.5,2.16c0,1.58-1.67,2.41-5.33,2.41-3.16,0-5.16-2.33-5.16-5.74v-.33c-4.08,4-9.15,6.91-14.4,6.91-7.41,0-11-5.16-11-12.4,0-6.49,3.75-10.82,11.32-11.24l14.07-.83v-3.58c0-6.16-4.08-7.91-8.65-7.91-5,0-10.15,1.5-12.32,2.91A3.62,3.62,0,0,1,437.28,110.71Zm22.14,23.72V126.6l-13.73,1.33c-4.25.42-5.91,2.58-5.91,6.16s2,6.82,6.16,6.82C450.6,140.92,454.76,138.75,459.42,134.42Z" transform="translate(-17.33 -8.49)"/><path class="cls-5" d="M487.14,112v1.42c3.66-5.24,7.91-8.74,14-8.74,5.41,0,9.07,2.91,10.32,8.82,3.75-5.08,8.65-8.82,14.73-8.82,6.82,0,11.57,4.41,11.57,13.73v20.31c0,1.33.5,2.25,1.58,2.25h3.16a2.81,2.81,0,0,1,.42,1.75c0,1.75-2,2.91-6.24,2.91-3.49,0-5.41-1.58-5.41-5.83V119.86c0-5.74-2.5-8.66-6.91-8.66-5.16,0-9.16,3.16-12.48,7.74v19.72c0,1.58.42,2.25,1.5,2.25h2.91a4.47,4.47,0,0,1,.33,1.83c0,1.91-2.5,2.83-6.16,2.83-3.41,0-5.16-1.58-5.16-5.83V119.69c0-5.58-2.16-8.49-6.49-8.49-4.74,0-8.65,3.33-11.65,7.82v25.8a6.53,6.53,0,0,1-3.58.75c-1.58,0-3.08-.58-3.08-3.25V113.7c0-1.75-.83-2.33-2.08-2.33h-3a6.39,6.39,0,0,1-.58-2.75c0-2.08,2.08-3.16,6-3.16S487.14,107.46,487.14,112Z" transform="translate(-17.33 -8.49)"/><path class="cls-6" d="M242.21,165.21c9.16,0,16.4,5.33,16.4,17.14,0,14.15-9.32,18-18.48,18h-12.9v22.47a7.56,7.56,0,0,1-3.58.67c-1.58,0-2.91-.58-2.91-3V165.8a6.62,6.62,0,0,1,3.25-.58Zm-15,5.33v24.39H238.8c8.07,0,13.65-2.91,13.65-12.15,0-8.32-4.33-12.24-11.23-12.24Z" transform="translate(-17.33 -8.49)"/><path class="cls-6" d="M278.41,190.26v.42c3.41-4.41,8.32-8.16,13-8.16,4.5,0,7.16,2.25,7.16,7,0,3.41-1.5,4.58-3.66,4.58a3.59,3.59,0,0,1-2.41-1c0-2.16-.92-3.66-3.66-3.66-3.58,0-7.49,2.91-10.4,7.24v26a6,6,0,0,1-3.5.75c-1.58,0-3-.42-3-3V191.85c0-1.75-.75-2.58-2.08-2.58h-3.08a7.36,7.36,0,0,1-.5-2.75c0-1.75,2.17-3.16,5.74-3.16C276,183.36,278.41,185,278.41,190.26Z" transform="translate(-17.33 -8.49)"/><path class="cls-6" d="M309.78,204.08c.17,9.49,5.16,14.4,12.15,14.4,5.91,0,11.07-2.25,13-3.75a2.94,2.94,0,0,1,1.41,2.75,3.23,3.23,0,0,1-1.41,2.91c-2.25,1.67-6.24,3.91-13.48,3.91-10.74,0-17.81-8.24-17.81-20.72,0-14.06,8.82-21.06,18.14-21.06,10.07,0,15,7.58,15,17.31a12.75,12.75,0,0,1-.58,4.24Zm.33-4.58h21c0-6.66-2.91-11.32-9.49-11.32C316.28,188.19,311.37,191.85,310.12,199.5Z" transform="translate(-17.33 -8.49)"/><path class="cls-6" d="M373.36,188.85a3.66,3.66,0,0,1-1.5,3.33c-1.83-1.66-6.66-3.24-12.4-3.24s-8,2.41-8,5.24c0,3.5,2.91,5,9.57,6.24,9.74,1.66,13.73,5.16,13.73,12.23,0,7.32-4.91,11.65-14.81,11.65-9,0-15.15-3.41-15.15-6.41a4.13,4.13,0,0,1,1.33-3.49c2.41,1.83,8.49,4.16,13.4,4.16,7,0,9.41-2.66,9.41-5.83,0-3.75-2.58-5.41-9.41-6.66-10.07-1.75-13.82-4.83-13.82-12.23,0-6.41,4.66-11.32,13.9-11.32S373.36,186.1,373.36,188.85Z" transform="translate(-17.33 -8.49)"/><path class="cls-6" d="M390.42,187.77A16.35,16.35,0,0,1,402,182.52c8.82,0,15.15,6.58,15.15,20.06,0,15.15-7.57,21.72-17.73,21.72a21.86,21.86,0,0,1-13-3.75,4.76,4.76,0,0,1-2.08-3.41V166a5.69,5.69,0,0,1,3.16-.83c1.67,0,2.91.67,2.91,2.5Zm0,6.07v21.64a14.94,14.94,0,0,0,9.24,3c7,0,11.48-5,11.48-15.31,0-9.74-4.5-14.23-10.49-14.23A12.7,12.7,0,0,0,390.42,193.84Z" transform="translate(-17.33 -8.49)"/><path class="cls-6" d="M443.53,215.06c.42,1.25,1.08,1.92,1.91,2.08,5-9.82,10.24-22,10.24-26.47,0-1.33-.58-2.25-2-2.25h-3a5.41,5.41,0,0,1-.42-2.25c0-1.75,2.33-2.83,5.08-2.83,4.74,0,6.66,2.16,6.66,5.83,0,8.24-11.73,32.13-17.14,40.7-4.66,7.41-9.49,9.24-15.4,9.24-4,0-5.74-1.17-5.74-3.25a4.91,4.91,0,0,1,.5-2.33h6.16c3.08,0,6.08-.92,9.49-6.33l2.66-4.66a5.59,5.59,0,0,1-3.91-3.91l-11-28.54c-.42-1.17-1-1.67-2.08-1.67h-3.08a5.13,5.13,0,0,1-.42-2.25c0-1.67,1.83-2.83,5.33-2.83s4.83,1.5,5.82,4.41Z" transform="translate(-17.33 -8.49)"/><path class="cls-6" d="M481.05,188.77v22.89c0,5,1.75,6.24,5.08,6.24h8a4,4,0,0,1,.42,1.83c0,2.16-1.91,3.75-10.07,3.75-5.49,0-9.49-2.25-9.49-10.32V188.77h-4.91a3.87,3.87,0,0,1-.67-2.33c0-1.91.58-3.08,2.75-3.08H475v-10.9a7.62,7.62,0,0,1,3.25-.66,2.52,2.52,0,0,1,2.83,2.75v8.82h12.73a2.93,2.93,0,0,1,.58,2.16c0,1.33-.42,3.25-3.16,3.25Z" transform="translate(-17.33 -8.49)"/><path class="cls-6" d="M507.35,204.08c.17,9.49,5.16,14.4,12.15,14.4,5.91,0,11.07-2.25,13-3.75a2.93,2.93,0,0,1,1.42,2.75,3.23,3.23,0,0,1-1.42,2.91c-2.25,1.67-6.24,3.91-13.48,3.91-10.74,0-17.81-8.24-17.81-20.72,0-14.06,8.82-21.06,18.14-21.06,10.07,0,15,7.58,15,17.31a12.75,12.75,0,0,1-.58,4.24Zm.33-4.58h21c0-6.66-2.91-11.32-9.49-11.32C513.84,188.19,508.93,191.85,507.68,199.5Z" transform="translate(-17.33 -8.49)"/><path class="cls-6" d="M552.87,190.26v.42c3.41-4.41,8.32-8.16,13-8.16,4.49,0,7.16,2.25,7.16,7,0,3.41-1.5,4.58-3.66,4.58a3.59,3.59,0,0,1-2.41-1c0-2.16-.92-3.66-3.66-3.66-3.58,0-7.49,2.91-10.4,7.24v26a6,6,0,0,1-3.49.75c-1.58,0-3-.42-3-3V191.85c0-1.75-.75-2.58-2.08-2.58h-3.08a7.34,7.34,0,0,1-.5-2.75c0-1.75,2.16-3.16,5.74-3.16C550.46,183.36,552.87,185,552.87,190.26Z" transform="translate(-17.33 -8.49)"/><path class="cls-6" d="M589.65,189.85v26.3c0,1.58.75,2.16,1.91,2.16H594a3.46,3.46,0,0,1,.5,2.08c0,1.92-1.58,3.08-5.58,3.08-3.41,0-5.49-1.5-5.49-5.66V191.6c0-1.83-.83-2.33-2.08-2.33h-2.41a5.06,5.06,0,0,1-.5-2.5c0-2.41,2.25-3.41,5.33-3.41C587.41,183.36,589.65,184.61,589.65,189.85Zm-3.91-22.05c2.66,0,4.08,1.42,4.08,4.16s-1.41,4-4.08,4-4.08-1.33-4.08-4S583,167.79,585.74,167.79Z" transform="translate(-17.33 -8.49)"/><path class="cls-6" d="M604.38,188.6c0-4,7.91-6.08,13.73-6.08,7.49,0,14,3.08,14,12.07V216c0,2.08.75,2.91,2.08,2.91h2.33a3.86,3.86,0,0,1,.5,2.16c0,1.58-1.67,2.41-5.33,2.41-3.16,0-5.16-2.33-5.16-5.74v-.33c-4.08,4-9.16,6.91-14.4,6.91-7.41,0-11-5.16-11-12.4,0-6.49,3.75-10.82,11.32-11.24l14.07-.83v-3.58c0-6.16-4.08-7.91-8.66-7.91-5,0-10.15,1.5-12.32,2.91A3.63,3.63,0,0,1,604.38,188.6Zm22.14,23.72V204.5l-13.73,1.33c-4.25.42-5.91,2.58-5.91,6.16s2,6.82,6.16,6.82C617.69,218.81,621.86,216.65,626.52,212.32Z" transform="translate(-17.33 -8.49)"/><path class="cls-6" d="M654.73,189.85v1.25c3.83-5.08,8.49-8.57,14.65-8.57,6.91,0,11.49,4.41,11.49,13.73v20.31c0,1.33.5,2.25,1.58,2.25h3.24a3.69,3.69,0,0,1,.33,1.75c0,1.75-1.92,2.91-6.16,2.91-3.58,0-5.41-1.58-5.41-5.83V197.75c0-5.74-2.75-8.82-7.07-8.82-5.33,0-9.32,3.41-12.65,8.24v25.55a6.53,6.53,0,0,1-3.58.75c-1.58,0-3.08-.58-3.08-3.25V191.6c0-1.75-.83-2.33-2.08-2.33h-3a6.36,6.36,0,0,1-.58-2.75c0-2.08,1.83-3.16,5.91-3.16C652.23,183.36,654.73,185.52,654.73,189.85Z" transform="translate(-17.33 -8.49)"/><path class="cls-6" d="M262.27,291.92a4.54,4.54,0,0,1-2.16,3.83c-1.75,1.75-7,6.57-18.06,6.57-14.48,0-24.63-8.74-24.63-30,0-20.39,9.9-30,24.22-30,9.82,0,14.73,3.08,17.89,6.91a4.27,4.27,0,0,1,1.83,3.58,3.22,3.22,0,0,1-2.41,3c-3.75-4.74-8.91-7.32-17.06-7.32-10.74,0-18.06,7.57-18.06,23.89,0,17.56,7.57,23.89,18.48,23.89,7.24,0,13.23-2.42,17.15-7.07A2.59,2.59,0,0,1,262.27,291.92Z" transform="translate(-17.33 -8.49)"/><path class="cls-6" d="M277,245.81v22.72c3.66-4.83,8.82-8,14.48-8,7.16,0,11.24,4.33,11.24,13.23v21c0,1.5.66,2.08,1.75,2.08H307a3.29,3.29,0,0,1,.42,1.83c0,1.67-2,2.83-5.82,2.83-3.16,0-5.16-1.67-5.16-6.16V275.27c0-5.74-2.25-8.32-6.83-8.32S280,270,277,274.77v26a6.09,6.09,0,0,1-3.25.67c-1.41,0-3-.42-3-3.08V244a6.52,6.52,0,0,1,3.33-.75C275.75,243.23,277,244,277,245.81Z" transform="translate(-17.33 -8.49)"/><path class="cls-6" d="M344.24,294.91v-.75c-3.83,5-8.91,8.16-14.81,8.16-6.57,0-11.15-3.41-11.15-13.4V269.45c0-1.58-.67-2.25-1.92-2.25H312.7a11,11,0,0,1-.33-2.66c.08-2.16,2.58-3.16,6.41-3.16,4.33,0,6.16,1.58,6.16,5.83v20.31c0,6,2.5,8.4,6.41,8.4,5.57,0,9.65-3.25,12.9-8.82v-25a7.87,7.87,0,0,1,3.58-.75c2.16,0,3.08.92,3.08,2.5v29.88c0,1.83.75,2.33,1.91,2.33h3.08a9.3,9.3,0,0,1,.25,2.08c0,2-2.16,3.33-6.24,3.33C346.82,301.49,344.24,300.24,344.24,294.91Z" transform="translate(-17.33 -8.49)"/><path class="cls-6" d="M373.29,268.28v.42c3.41-4.41,8.32-8.16,13-8.16,4.5,0,7.16,2.25,7.16,7,0,3.41-1.5,4.58-3.66,4.58a3.6,3.6,0,0,1-2.41-1c0-2.16-.92-3.66-3.66-3.66-3.58,0-7.49,2.91-10.4,7.24v26.05a6,6,0,0,1-3.49.75c-1.58,0-3-.42-3-3V269.86c0-1.75-.75-2.58-2.08-2.58h-3.08a7.34,7.34,0,0,1-.5-2.75c0-1.75,2.17-3.16,5.74-3.16C370.87,261.37,373.29,263,373.29,268.28Z" transform="translate(-17.33 -8.49)"/><path class="cls-6" d="M426.05,269.45c-3.74-1.83-5.49-2.58-11-2.58-6.24,0-12,3.74-12,14.73,0,9.41,5.16,14.9,12.65,14.9a20.34,20.34,0,0,0,11.32-3.25,3.62,3.62,0,0,1,1.08,2.75,4.43,4.43,0,0,1-2.5,3.83,20.24,20.24,0,0,1-10.24,2.5c-11.24,0-18.39-8-18.39-20.81,0-15.56,9.32-21,17.89-21,6.32,0,8.65,1.33,11,2.83a3.25,3.25,0,0,1,1.75,2.83A5.34,5.34,0,0,1,426.05,269.45Z" transform="translate(-17.33 -8.49)"/><path class="cls-6" d="M443.19,245.81v22.72c3.66-4.83,8.82-8,14.48-8,7.16,0,11.24,4.33,11.24,13.23v21c0,1.5.67,2.08,1.75,2.08h2.5a3.3,3.3,0,0,1,.42,1.83c0,1.67-2,2.83-5.83,2.83-3.16,0-5.16-1.67-5.16-6.16V275.27c0-5.74-2.25-8.32-6.82-8.32s-9.57,3.08-12.57,7.82v26a6.08,6.08,0,0,1-3.25.67c-1.41,0-3-.42-3-3.08V244a6.54,6.54,0,0,1,3.33-.75C441.95,243.23,443.19,244,443.19,245.81Z" transform="translate(-17.33 -8.49)"/></svg>